<?xml version="1.0" encoding="UTF-8" standalone="no"?>
<svg width="21px" height="24px" viewBox="0 0 21 24" version="1.1" xmlns="http://www.w3.org/2000/svg" xmlns:xlink="http://www.w3.org/1999/xlink">
    <!-- Generator: Sketch 3.7.2 (28276) - http://www.bohemiancoding.com/sketch -->
    <title>noun_105351_cc</title>
    <desc>Created with Sketch.</desc>
    <defs></defs>
    <g id="Product-UI" stroke="none" stroke-width="1" fill="none" fill-rule="evenodd">
        <g id="Dashboard-List" class="fillable" transform="translate(-26.000000, -227.000000)" fill="#FFFFFF">
            <g id="noun_105351_cc" transform="translate(26.000000, 227.000000)">
                <g id="Group">
                    <g>
                        <path d="M10.7016,0 L0.260925,6.1096875 L0.260925,17.71035 L10.644375,23.625 L20.87715,17.71035 L20.87715,5.9285625 L10.7016,0 L10.7016,0 Z M19.8389625,17.111325 L10.9039875,22.27575 L10.9039875,21.965475 L10.3847625,21.965475 L10.3847625,22.28205 L1.299375,17.1066 L1.299375,6.7050375 L10.70265,1.2025125 L19.8389625,6.525225 L19.8389625,17.111325 L19.8389625,17.111325 Z" id="Shape"></path>
                        <rect id="Rectangle-path" transform="translate(4.702735, 8.468315) rotate(207.964294) translate(-4.702735, -8.468315) " x="4.138386" y="8.20858345" width="1.12869889" height="0.51946398"></rect>
                        <rect id="Rectangle-path" transform="translate(6.696051, 9.526612) rotate(207.956547) translate(-6.696051, -9.526612) " x="6.13180921" y="9.26700017" width="1.12848317" height="0.519223009"></rect>
                        <rect id="Rectangle-path" transform="translate(8.690641, 10.585953) rotate(207.964294) translate(-8.690641, -10.585953) " x="8.12629171" y="10.3263522" width="1.12869889" height="0.519201492"></rect>
                        <rect id="Rectangle-path" transform="translate(2.709057, 7.409332) rotate(207.969355) translate(-2.709057, -7.409332) " x="2.14468149" y="7.14985052" width="1.12875183" height="0.518963341"></rect>
                        <polygon id="Shape" points="10.3075875 11.14995 10.06425 11.6085375 10.385025 11.7786375 10.385025 12.141675 10.9039875 12.141675 10.9039875 11.7749625 11.2242375 11.5969875 10.9717125 11.143125 10.6414875 11.326875"></polygon>
                        <rect id="Rectangle-path" transform="translate(18.381105, 7.317913) rotate(60.923136) translate(-18.381105, -7.317913) " x="18.1216144" y="6.76218028" width="0.518981182" height="1.11146501"></rect>
                        <rect id="Rectangle-path" transform="translate(12.555333, 10.559759) rotate(60.902545) translate(-12.555333, -10.559759) " x="12.2957188" y="10.0041738" width="0.519228668" height="1.11117035"></rect>
                        <rect id="Rectangle-path" transform="translate(14.497641, 9.478902) rotate(60.902545) translate(-14.497641, -9.478902) " x="14.2380268" y="8.92331672" width="0.519228668" height="1.11117035"></rect>
                        <rect id="Rectangle-path" transform="translate(16.439455, 8.398112) rotate(60.889746) translate(-16.439455, -8.398112) " x="16.1799694" y="7.84239" width="0.518971307" height="1.11144386"></rect>
                        <rect id="Rectangle-path" x="10.385025" y="17.5993125" width="0.519225" height="1.0917375"></rect>
                        <rect id="Rectangle-path" x="10.385025" y="19.7822625" width="0.519225" height="1.0917375"></rect>
                        <rect id="Rectangle-path" x="10.385025" y="13.23315" width="0.519225" height="1.0917375"></rect>
                        <rect id="Rectangle-path" x="10.385025" y="15.4163625" width="0.519225" height="1.0917375"></rect>
                    </g>
                </g>
            </g>
        </g>
    </g>
</svg>