<?xml version="1.0" encoding="UTF-8" standalone="no"?>
<svg width="22px" height="22px" viewBox="0 0 22 22" version="1.1" xmlns="http://www.w3.org/2000/svg" xmlns:xlink="http://www.w3.org/1999/xlink">
    <!-- Generator: Sketch 3.7.2 (28276) - http://www.bohemiancoding.com/sketch -->
    <title>Group</title>
    <desc>Created with Sketch.</desc>
    <defs></defs>
    <g id="Product-UI" stroke="none" stroke-width="1" fill="none" fill-rule="evenodd">
        <g id="Dashboard-Grid" transform="translate(-25.000000, -171.000000)" fill="#FFFFFF">
            <g id="Group" transform="translate(25.000000, 171.000000)">
                <path d="M10.9945,0 C4.917,0 0,4.9225 0,11 C0,17.0775 4.917,22 10.9945,22 C17.072,22 22,17.0775 22,11 C22,4.9225 17.072,0 10.9945,0 L10.9945,0 L10.9945,0 Z M11,19.9157895 C6.07402632,19.9157895 2.08421053,15.9259737 2.08421053,11 C2.08421053,6.07402632 6.07402632,2.08421053 11,2.08421053 C15.9259737,2.08421053 19.9157895,6.07402632 19.9157895,11 C19.9157895,15.9259737 15.9259737,19.9157895 11,19.9157895 L11,19.9157895 L11,19.9157895 Z" id="Shape"></path>
                <polygon id="Shape" transform="translate(12.042105, 8.452632) rotate(30.000000) translate(-12.042105, -8.452632) " points="12.8163353 4.93047967 11.149858 4.82300351 11.267875 11.9747836 12.9343524 12.0822598"></polygon>
            </g>
        </g>
    </g>
</svg>