<?xml version="1.0" encoding="UTF-8" standalone="no"?>
<svg width="34px" height="39px" viewBox="0 0 34 39" version="1.1" xmlns="http://www.w3.org/2000/svg" xmlns:xlink="http://www.w3.org/1999/xlink">
    <!-- Generator: Sketch 3.7.2 (28276) - http://www.bohemiancoding.com/sketch -->
    <title>Group</title>
    <desc>Created with Sketch.</desc>
    <defs></defs>
    <g id="Product-UI" stroke="none" stroke-width="1" fill="none" fill-rule="evenodd">
        <g id="Dashboard-List" transform="translate(-1288.000000, -394.000000)">
            <g id="Group" transform="translate(1288.000000, 394.000000)">
                <path d="M33.1099416,8.99987935 C33.6015073,9.28368494 34,9.97484668 34,10.5415057 L34,28.115913 C34,28.6835242 33.6006827,29.3742099 33.1099416,29.6575394 L17.8900584,38.4447431 C17.3984927,38.7285487 16.6006827,38.7280726 16.1099416,38.4447431 L0.890058413,29.6575394 C0.398492725,29.3737339 0,28.6825721 0,28.115913 L0,10.5415057 C0,9.97389458 0.399317268,9.28320889 0.890058413,8.99987935 L16.1099416,0.212675706 C16.6015073,-0.0711298768 17.3993173,-0.070653827 17.8900584,0.212675706 L33.1099416,8.99987935 L33.1099416,8.99987935 Z" id="Rectangle-1-Copy-6" fill="#3E4457"></path>
                <path d="M11,19 L23,19" id="Line" class="strokable" stroke="#FFFFFF" stroke-width="2" stroke-linecap="square"></path>
                <path d="M17,13 L17,25" id="Line-Copy" class="strokable" stroke="#FFFFFF" stroke-width="2" stroke-linecap="square"></path>
            </g>
        </g>
    </g>
</svg>