<?xml version="1.0" encoding="UTF-8" standalone="no"?>
<svg width="8px" height="9px" viewBox="0 0 8 9" version="1.1" xmlns="http://www.w3.org/2000/svg" xmlns:xlink="http://www.w3.org/1999/xlink">
    <!-- Generator: Sketch 3.7.2 (28276) - http://www.bohemiancoding.com/sketch -->
    <title>Rectangle 1 Copy 10</title>
    <desc>Created with Sketch.</desc>
    <defs></defs>
    <g id="UI" stroke="none" stroke-width="1" fill="none" fill-rule="evenodd">
        <g id="Tutorial-Step-3-1" transform="translate(-438.000000, -572.000000)" fill="#9B9B9B">
            <g id="Group-14" transform="translate(320.000000, 242.000000)">
                <g id="Group-8" transform="translate(80.000000, 192.000000)">
                    <g id="Group-4-Copy-3">
                        <g id="Group-15" transform="translate(24.000000, 138.000000)">
                            <path d="M21.3036636,1.9852675 C21.4120972,2.04787168 21.5,2.20033383 21.5,2.32533215 L21.5,6.20203964 C21.5,6.32724799 21.4119153,6.47960513 21.3036636,6.54210429 L17.9463364,8.48045803 C17.8379028,8.54306221 17.6619153,8.54295719 17.5536636,8.48045803 L14.1963364,6.54210429 C14.0879028,6.47950011 14,6.32703796 14,6.20203964 L14,2.32533215 C14,2.2001238 14.0880847,2.04776667 14.1963364,1.9852675 L17.5536636,0.0469137586 C17.6620972,-0.015690414 17.8380847,-0.015585403 17.9463364,0.0469137586 L21.3036636,1.9852675 L21.3036636,1.9852675 Z" id="Rectangle-1-Copy-10"></path>
                        </g>
                    </g>
                </g>
            </g>
        </g>
    </g>
</svg>