<?xml version="1.0" encoding="UTF-8" standalone="no"?>
<svg width="22px" height="22px" viewBox="0 0 22 22" version="1.1" xmlns="http://www.w3.org/2000/svg" xmlns:xlink="http://www.w3.org/1999/xlink">
    <!-- Generator: Sketch 3.7.2 (28276) - http://www.bohemiancoding.com/sketch -->
    <title>Group</title>
    <desc>Created with Sketch.</desc>
    <defs></defs>
    <g id="UI" stroke="none" stroke-width="1" fill="none" fill-rule="evenodd">
        <g id="Dashboard-Grid-Troubleshoot" transform="translate(-25.000000, -256.000000)" fill="#FFFFFF">
            <g id="Group-12" transform="translate(0.000000, -1.000000)">
                <g id="Group-11" transform="translate(25.000000, 202.000000)">
                    <g id="Group" transform="translate(0.000000, 55.000000)">
                        <rect id="Rectangle-path" x="4.07169231" y="12.3816436" width="9.16142857" height="1.37554455"></rect>
                        <rect id="Rectangle-path" x="4.07169231" y="8.25435644" width="9.16142857" height="1.37554455"></rect>
                        <rect id="Rectangle-path" x="4.07169231" y="4.12728713" width="9.16142857" height="1.37554455"></rect>
                        <path d="M20.8676044,3.21025743 L17.3050549,3.21025743 L17.3050549,0.917029703 C17.3050549,0.343722772 16.9235604,0 16.287011,0 L1.0178022,0 C0.381494505,0 0,0.343722772 0,0.917029703 L0,17.8842574 C0,18.458 0.381494505,18.8019406 1.0178022,18.8019406 L4.58059341,18.8019406 L4.58059341,20.8655842 C4.58059341,21.4388911 4.96232967,21.7826139 5.59863736,21.7826139 L20.8676044,21.7826139 C21.5041538,21.7826139 21.8856484,21.4388911 21.8856484,20.8655842 L21.8856484,4.12728713 C21.8856484,3.55376238 21.5041538,3.21025743 20.8676044,3.21025743 L20.8676044,3.21025743 Z M1.52694505,16.9674455 L1.52694505,1.83427723 C1.52694505,1.54762376 1.71769231,1.37554455 2.03584615,1.37554455 L15.268967,1.37554455 C15.5871209,1.37554455 15.7778681,1.54762376 15.7778681,1.83427723 L15.7778681,16.9674455 C15.7778681,17.2538812 15.5871209,17.4257426 15.268967,17.4257426 L2.03584615,17.4257426 C1.71769231,17.4257426 1.52694505,17.2538812 1.52694505,16.9674455 L1.52694505,16.9674455 Z M20.3584615,19.947901 C20.3584615,20.2345545 20.1677143,20.406198 19.8498022,20.406198 L6.87101099,20.406198 C6.55285714,20.406198 6.36210989,20.2347723 6.36210989,19.947901 L6.36210989,18.8012871 L16.287011,18.8012871 C16.9235604,18.8012871 17.3050549,18.4575644 17.3050549,17.8840396 L17.3050549,4.81516832 L19.8498022,4.81516832 C20.1677143,4.81516832 20.3584615,4.98681188 20.3584615,5.27346535 L20.3584615,19.947901 L20.3584615,19.947901 Z" id="Shape"></path>
                    </g>
                </g>
            </g>
        </g>
    </g>
</svg>