<?xml version="1.0" encoding="UTF-8" standalone="no"?>
<svg width="19px" height="19px" viewBox="0 0 19 19" version="1.1" xmlns="http://www.w3.org/2000/svg" xmlns:xlink="http://www.w3.org/1999/xlink">
    <!-- Generator: Sketch 3.7.2 (28276) - http://www.bohemiancoding.com/sketch -->
    <title>Group 3</title>
    <desc>Created with Sketch.</desc>
    <defs>
        <path d="M13.1370734,2.08304742 C13.2508477,2.14873502 13.3430799,2.30870635 13.3430799,2.43986119 L13.3430799,6.50750724 C13.3430799,6.63888244 13.2506568,6.79874359 13.1370734,6.86432101 L9.6143886,8.89814403 C9.50061434,8.96383163 9.31595897,8.96372145 9.20237555,8.89814403 L5.67969074,6.86432101 C5.56591647,6.7986334 5.47368421,6.63866207 5.47368421,6.50750724 L5.47368421,2.43986119 C5.47368421,2.30848598 5.56610732,2.14862483 5.67969074,2.08304742 L9.20237555,0.0492243908 C9.31614981,-0.0164632103 9.50080518,-0.0163530272 9.6143886,0.0492243908 L13.1370734,2.08304742 L13.1370734,2.08304742 Z" id="path-1"></path>
        <mask id="mask-2" maskContentUnits="userSpaceOnUse" maskUnits="objectBoundingBox" x="0" y="0" width="7.86939573" height="8.94736842" fill="white">
            <use xlink:href="#path-1"></use>
        </mask>
        <path d="M18.6107576,12.135679 C18.7245319,12.2013666 18.8167642,12.3613379 18.8167642,12.4924928 L18.8167642,16.5601388 C18.8167642,16.691514 18.724341,16.8513752 18.6107576,16.9169526 L15.0880728,18.9507756 C14.9742985,19.0164632 14.7896432,19.016353 14.6760598,18.9507756 L11.1533749,16.9169526 C11.0396007,16.851265 10.9473684,16.6912937 10.9473684,16.5601388 L10.9473684,12.4924928 C10.9473684,12.3611176 11.0397915,12.2012564 11.1533749,12.135679 L14.6760598,10.101856 C14.789834,10.0361684 14.9744894,10.0362786 15.0880728,10.101856 L18.6107576,12.135679 L18.6107576,12.135679 Z" id="path-3"></path>
        <mask id="mask-4" maskContentUnits="userSpaceOnUse" maskUnits="objectBoundingBox" x="0" y="0" width="7.86939573" height="8.94736842" fill="white">
            <use xlink:href="#path-3"></use>
        </mask>
        <path d="M7.6633892,12.135679 C7.77716347,12.2013666 7.86939573,12.3613379 7.86939573,12.4924928 L7.86939573,16.5601388 C7.86939573,16.691514 7.77697262,16.8513752 7.6633892,16.9169526 L4.14070439,18.9507756 C4.02693013,19.0164632 3.84227476,19.016353 3.72869134,18.9507756 L0.206006526,16.9169526 C0.0922322632,16.851265 0,16.6912937 0,16.5601388 L0,12.4924928 C0,12.3611176 0.0924231059,12.2012564 0.206006526,12.135679 L3.72869134,10.101856 C3.8424656,10.0361684 4.02712097,10.0362786 4.14070439,10.101856 L7.6633892,12.135679 L7.6633892,12.135679 Z" id="path-5"></path>
        <mask id="mask-6" maskContentUnits="userSpaceOnUse" maskUnits="objectBoundingBox" x="0" y="0" width="7.86939573" height="8.94736842" fill="white">
            <use xlink:href="#path-5"></use>
        </mask>
    </defs>
    <g id="Product-UI" stroke="none" stroke-width="1" fill="none" fill-rule="evenodd">
        <g id="Dashboard-List" class="strokable" transform="translate(-1216.000000, -404.000000)" stroke="#fff" stroke-width="2">
            <g id="Group-3" transform="translate(1216.000000, 404.000000)">
                <use id="Rectangle-1-Copy-6" mask="url(#mask-2)" xlink:href="#path-1"></use>
                <use id="Rectangle-1-Copy-7" mask="url(#mask-4)" xlink:href="#path-3"></use>
                <use id="Rectangle-1-Copy-8" mask="url(#mask-6)" xlink:href="#path-5"></use>
            </g>
        </g>
    </g>
</svg>