<?xml version="1.0" encoding="UTF-8" standalone="no"?>
<svg width="18px" height="14px" viewBox="0 0 18 14" version="1.1" xmlns="http://www.w3.org/2000/svg" xmlns:xlink="http://www.w3.org/1999/xlink">
    <!-- Generator: Sketch 3.7.2 (28276) - http://www.bohemiancoding.com/sketch -->
    <title>noun_18949_cc</title>
    <desc>Created with Sketch.</desc>
    <defs></defs>
    <g id="Product-UI" stroke="none" stroke-width="1" fill="none" fill-rule="evenodd">
        <g id="Dashboard-List" class="fillable" transform="translate(-1252.000000, -407.000000)" fill="#FFFFFF">
            <g id="noun_18949_cc" transform="translate(1252.000000, 407.000000)">
                <g id="Group">
                    <path d="M18,1.55555556 L18,1.03703704 C18,0.275074074 17.7723947,0 17.0526316,0 L0.947368421,0 C0.222394737,0 0,0.26937037 0,1.03703704 L0,1.55555556 C0,2.35925926 0.246078947,2.59259259 0.947368421,2.59259259 L17.0526316,2.59259259 C17.7631579,2.59259259 18,2.34344444 18,1.55555556 L18,1.55555556 Z M18,7.25925926 L18,6.74074074 C18,5.97877778 17.7723947,5.7037037 17.0526316,5.7037037 L0.947368421,5.7037037 C0.222394737,5.7037037 0,5.97307407 0,6.74074074 L0,7.25925926 C0,8.06296296 0.246078947,8.2962963 0.947368421,8.2962963 L17.0526316,8.2962963 C17.7631579,8.2962963 18,8.04714815 18,7.25925926 L18,7.25925926 Z M18,12.962963 L18,12.4444444 C18,11.6824815 17.7723947,11.4074074 17.0526316,11.4074074 L0.947368421,11.4074074 C0.222394737,11.4074074 0,11.6767778 0,12.4444444 L0,12.962963 C0,13.7666667 0.246078947,14 0.947368421,14 L17.0526316,14 C17.7631579,14 18,13.7508519 18,12.962963 L18,12.962963 Z" id="Shape"></path>
                </g>
            </g>
        </g>
    </g>
</svg>