<?xml version="1.0" encoding="UTF-8" standalone="no"?>
<svg width="28px" height="32px" viewBox="0 0 28 32" version="1.1" xmlns="http://www.w3.org/2000/svg" xmlns:xlink="http://www.w3.org/1999/xlink">
    <!-- Generator: Sketch 3.7.2 (28276) - http://www.bohemiancoding.com/sketch -->
    <title>Rectangle 1 Copy 6</title>
    <desc>Created with Sketch.</desc>
    <defs></defs>
    <g id="UI" stroke="none" stroke-width="1" fill="none" fill-rule="evenodd">
        <g id="Step-1" transform="translate(-518.000000, -326.000000)" fill="#9B9B9B">
            <g id="Group-15" transform="translate(320.000000, 242.000000)">
                <g id="Group-13" transform="translate(25.000000, 60.000000)">
                    <g id="Group-10" transform="translate(4.000000, 22.000000)">
                        <g id="Group-12" transform="translate(169.000000, 2.000000)">
                            <g id="Group-Copy">
                                <path d="M27.2670107,7.41166535 C27.6718295,7.64538759 28,8.21457962 28,8.68124003 L28,23.1542813 C28,23.6217258 27.6711505,24.1905258 27.2670107,24.423856 L14.7329893,31.6603767 C14.3281705,31.8940989 13.6711505,31.8937069 13.2670107,31.6603767 L0.732989281,24.423856 C0.32817048,24.1901338 0,23.6209417 0,23.1542813 L0,8.68124003 C0,8.21379554 0.328849514,7.64499555 0.732989281,7.41166535 L13.2670107,0.175144699 C13.6718295,-0.0585775456 14.3288495,-0.0581855046 14.7329893,0.175144699 L27.2670107,7.41166535 L27.2670107,7.41166535 Z" id="Rectangle-1-Copy-6"></path>
                            </g>
                        </g>
                    </g>
                </g>
            </g>
        </g>
    </g>
</svg>