<?xml version="1.0" encoding="UTF-8" standalone="no"?>
<svg width="22px" height="18px" viewBox="0 0 22 18" version="1.1" xmlns="http://www.w3.org/2000/svg" xmlns:xlink="http://www.w3.org/1999/xlink">
    <!-- Generator: Sketch 3.7.2 (28276) - http://www.bohemiancoding.com/sketch -->
    <title>noun_174866_cc</title>
    <desc>Created with Sketch.</desc>
    <defs></defs>
    <g id="UI" stroke="none" stroke-width="1" fill="none" fill-rule="evenodd">
        <g id="Dashboard-Grid-Troubleshoot" transform="translate(-25.000000, -307.000000)" fill="#FFFFFF">
            <g id="Group-12" transform="translate(0.000000, -1.000000)">
                <g id="Group-11" transform="translate(25.000000, 202.000000)">
                    <g id="noun_174866_cc" transform="translate(0.000000, 106.000000)">
                        <g id="Group">
                            <g id="Shape">
                                <path d="M0.229166667,0.996470588 L0.229166667,16.5323529 C0.229166667,16.94 0.595833333,17.2117647 0.9625,17.1664706 C3.66666667,16.8041176 6.41666667,16.8947059 9.12083333,17.9364706 C9.53333333,18.1176471 10.0375,17.8005882 10.0375,17.3476471 L10.0375,1.90235294 C10.0375,1.63058824 9.9,1.40411765 9.67083333,1.31352941 C6.69166667,-1.22096777e-13 3.7125,-0.0452941176 0.779166667,0.362352941 C0.458333333,0.407647059 0.229166667,0.679411765 0.229166667,0.996470588 L0.229166667,0.996470588 Z"></path>
                                <path d="M21.7708333,0.996470588 L21.7708333,16.5323529 C21.7708333,16.94 21.4041667,17.2117647 21.0375,17.1664706 C18.3333333,16.8041176 15.5833333,16.8947059 12.8791667,17.9364706 C12.4666667,18.1176471 11.9625,17.8005882 11.9625,17.3476471 L11.9625,1.90235294 C11.9625,1.63058824 12.1,1.40411765 12.3291667,1.31352941 C15.2625,-1.22069022e-13 18.2416667,-0.0452941176 21.175,0.362352941 C21.5416667,0.407647059 21.7708333,0.679411765 21.7708333,0.996470588 L21.7708333,0.996470588 Z"></path>
                            </g>
                        </g>
                    </g>
                </g>
            </g>
        </g>
    </g>
</svg>