<?xml version="1.0" encoding="UTF-8" standalone="no"?>
<svg width="30px" height="35px" viewBox="0 0 30 35" version="1.1" xmlns="http://www.w3.org/2000/svg" xmlns:xlink="http://www.w3.org/1999/xlink">
    <!-- Generator: Sketch 3.7.2 (28276) - http://www.bohemiancoding.com/sketch -->
    <title>Rectangle 1 Copy 6</title>
    <desc>Created with Sketch.</desc>
    <defs></defs>
    <g id="UI" stroke="none" stroke-width="1" fill="none" fill-rule="evenodd">
        <g id="Step-1" transform="translate(-349.000000, -324.000000)" fill="#DC4E3A">
            <g id="Group-15" transform="translate(320.000000, 242.000000)">
                <g id="Group-13" transform="translate(25.000000, 60.000000)">
                    <g id="Group-10" transform="translate(4.000000, 22.000000)">
                        <g id="Group-11">
                            <g id="Group">
                                <path d="M29.2146543,7.94107002 C29.6483888,8.19148671 30,8.80133531 30,9.3013286 L30,24.8081586 C30,25.3089919 29.6476612,25.9184205 29.2146543,26.1684171 L15.7853457,33.9218321 C15.3516112,34.1722488 14.6476612,34.1718288 14.2146543,33.9218321 L0.785345659,26.1684171 C0.351611228,25.9180005 0,25.3081519 0,24.8081586 L0,9.3013286 C0,8.80049522 0.352338766,8.19106666 0.785345659,7.94107002 L14.2146543,0.187655034 C14.6483888,-0.062761656 15.3523388,-0.062341612 15.7853457,0.187655034 L29.2146543,7.94107002 L29.2146543,7.94107002 Z" id="Rectangle-1-Copy-6"></path>
                            </g>
                        </g>
                    </g>
                </g>
            </g>
        </g>
    </g>
</svg>