<?xml version="1.0" encoding="UTF-8" standalone="no"?>
<svg width="25px" height="28px" viewBox="0 0 25 28" version="1.1" xmlns="http://www.w3.org/2000/svg" xmlns:xlink="http://www.w3.org/1999/xlink">
    <!-- Generator: Sketch 3.7.2 (28276) - http://www.bohemiancoding.com/sketch -->
    <title>Group 7</title>
    <desc>Created with Sketch.</desc>
    <defs></defs>
    <g id="Product-UI" stroke="none" stroke-width="1" fill="none" fill-rule="evenodd">
        <g id="Dashboard-Grid" class="fillable" transform="translate(-26.000000, -44.000000)" fill="#FFFFFF">
            <g id="Group-7" transform="translate(26.000000, 44.000000)">
                <g id="Group-5">
                    <g id="Datawire_Logo_CMYK">
                        <path d="M12.4507383,13.5017273 L17.3550336,10.6915455 C17.5329195,10.5897273 17.5329195,10.3332727 17.3556711,10.2308182 L12.4877181,7.42381818 C12.4054698,7.37672727 12.3034564,7.37672727 12.2212081,7.42445455 L7.34687919,10.2473636 C7.16963087,10.3498182 7.17026846,10.605 7.34687919,10.7074545 L12.1848658,13.5017273 C12.2671141,13.5488182 12.3684899,13.5494545 12.4507383,13.5017273" id="Fill-8"></path>
                        <path d="M19.706443,10.6947273 L23.7187584,13.0085455 C23.8966443,13.111 24.1185235,12.9830909 24.1185235,12.7781818 L24.1185235,8.16518182 C24.1185235,7.96090909 23.8972819,7.833 23.719396,7.93481818 L19.7070805,10.234 C19.5291946,10.3358182 19.528557,10.5922727 19.706443,10.6947273" id="Fill-9"></path>
                        <path d="M1.35550336,7.24690909 L6.0442953,9.95463636 C6.12654362,10.0023636 6.22855705,10.0023636 6.31080537,9.95463636 L11.1844966,7.13172727 C11.3611074,7.02927273 11.3611074,6.77409091 11.1838591,6.67227273 L6.50144295,3.97154545 C6.41919463,3.92445455 6.31781879,3.92445455 6.23557047,3.97218182 L1.35550336,6.78681818 C1.17889262,6.88927273 1.17825503,7.14445455 1.35550336,7.24690909" id="Fill-10"></path>
                        <path d="M6.2183557,17.0736364 L11.1411409,14.252 C11.3190268,14.1501818 11.3196644,13.8943636 11.1424161,13.7919091 L6.31144295,11.0014545 C6.22919463,10.9543636 6.12718121,10.9543636 6.04493289,11.0020909 L1.15466443,13.8345455 C0.977416107,13.937 0.977416107,14.1915455 1.15466443,14.294 L5.95184564,17.073 C6.03409396,17.1207273 6.1354698,17.1207273 6.2183557,17.0736364" id="Fill-11"></path>
                        <path d="M18.6225503,17.0672727 L23.5421477,14.2602727 C23.7206711,14.1584545 23.7213087,13.902 23.5434228,13.7995455 L18.6633557,10.9849091 C18.5811074,10.9378182 18.4797315,10.9378182 18.3974832,10.9849091 L13.4919128,13.7957273 C13.3140268,13.8975455 13.3140268,14.154 13.4912752,14.2564545 L18.3566779,17.0666364 C18.4389262,17.1137273 18.540302,17.1143636 18.6225503,17.0672727" id="Fill-12"></path>
                        <path d="M5.00885906,10.2492727 L1.0054698,7.93672727 C0.828221477,7.83427273 0.606342282,7.96218182 0.606342282,8.16709091 L0.606342282,12.7979091 C0.606342282,13.0028182 0.828221477,13.1300909 1.00610738,13.0276364 L5.00885906,10.7087273 C5.1854698,10.6062727 5.1854698,10.3510909 5.00885906,10.2492727" id="Fill-13"></path>
                        <path d="M13.5244295,7.12918182 L18.3987584,9.94063636 C18.4810067,9.98772727 18.5823826,9.98772727 18.6646309,9.94063636 L23.3661745,7.24627273 C23.5440604,7.14445455 23.544698,6.88863636 23.3668121,6.78618182 L18.468255,3.96009091 C18.3860067,3.91236364 18.2839933,3.91236364 18.201745,3.96009091 L13.5237919,6.66972727 C13.3471812,6.77218182 13.3471812,7.02736364 13.5244295,7.12918182" id="Fill-14"></path>
                        <path d="M19.665,17.822 L23.7187584,20.1638182 C23.8960067,20.2662727 24.1185235,20.1383636 24.1185235,19.9334545 L24.1185235,15.2790909 C24.1185235,15.0748182 23.8972819,14.9475455 23.7200336,15.0487273 L19.6656376,17.3612727 C19.4877517,17.4630909 19.4871141,17.7195455 19.665,17.822" id="Fill-15"></path>
                        <path d="M12.4870805,6.377 L17.1650336,3.66736364 C17.3422819,3.56490909 17.3416443,3.30972727 17.1650336,3.20790909 L12.4953691,0.514181818 C12.4131208,0.466454545 12.311745,0.466454545 12.2288591,0.514181818 L7.5407047,3.21872727 C7.36345638,3.32118182 7.36345638,3.57636364 7.5407047,3.67881818 L12.2205705,6.37763636 C12.3028188,6.42472727 12.4048322,6.42472727 12.4870805,6.377" id="Fill-16"></path>
                        <path d="M12.0981544,21.679 L7.505,24.2995455 C7.32711409,24.4013636 7.32647651,24.6578182 7.50436242,24.7602727 L12.2288591,27.4858182 C12.311745,27.5335455 12.4131208,27.5335455 12.4953691,27.4858182 L17.0534564,24.8563636 C17.2307047,24.7545455 17.2307047,24.4993636 17.054094,24.3969091 L12.3640268,21.6802727 C12.2817785,21.6325455 12.1804027,21.6319091 12.0981544,21.679" id="Fill-17"></path>
                        <path d="M23.2820134,20.804 L18.6193624,18.1109091 C18.5371141,18.0631818 18.4363758,18.0631818 18.3541275,18.1102727 L13.4090268,20.9312727 C13.2311409,21.0330909 13.2305034,21.2889091 13.4077517,21.3913636 L18.0908054,24.1041818 C18.1730537,24.1519091 18.2750671,24.1519091 18.3573154,24.1041818 L23.2813758,21.2634545 C23.4586242,21.1616364 23.4592617,20.9058182 23.2820134,20.804" id="Fill-18"></path>
                        <path d="M11.058255,20.9236364 L6.21580537,18.1185455 C6.13355705,18.0714545 6.03218121,18.0708182 5.94993289,18.1179091 L1.35422819,20.7518182 C1.17634228,20.8536364 1.1757047,21.1100909 1.3535906,21.2125455 L6.19540268,24.0055455 C6.27765101,24.0526364 6.37838926,24.0526364 6.46063758,24.0061818 L11.0563423,21.3837273 C11.2342282,21.2825455 11.2355034,21.0260909 11.058255,20.9236364" id="Fill-19"></path>
                        <path d="M12.182953,14.546 L7.25761745,17.3682727 C7.08036913,17.4707273 7.07973154,17.7259091 7.25697987,17.829 L12.1019799,20.6353636 C12.1835906,20.6824545 12.2849664,20.6830909 12.3672148,20.636 L17.3104027,17.8156364 C17.4882886,17.7144545 17.4889262,17.458 17.3116779,17.3555455 L12.4488255,14.5466364 C12.3665772,14.4989091 12.2652013,14.4989091 12.182953,14.546" id="Fill-20"></path>
                        <path d="M0.606342282,15.3306364 L0.606342282,19.831 C0.606342282,20.0352727 0.827583893,20.1631818 1.00483221,20.0613636 L4.91003356,17.8232727 C5.08791946,17.7214545 5.08855705,17.4656364 4.91130872,17.3631818 L1.00610738,15.1009091 C0.828221477,14.9984545 0.606342282,15.1257273 0.606342282,15.3306364" id="Fill-21"></path>
                    </g>
                </g>
            </g>
        </g>
    </g>
</svg>